<svg xmlns="http://www.w3.org/2000/svg" width="19.568" height="19.568" viewBox="0 0 19.568 19.568">
  <g id="puzzle" transform="matrix(0.819, -0.574, 0.574, 0.819, 0, 8.059)">
    <path id="Path_487" data-name="Path 487" d="M6.017,1.94a1.569,1.569,0,0,1,1.008.438V0H.969A.969.969,0,0,0,0,.969V7.025H2.378A1.57,1.57,0,0,0,1.94,8.033,1.6,1.6,0,0,0,3.49,9.69,1.573,1.573,0,0,0,4.647,7.025H7.025V4.647A1.573,1.573,0,0,1,4.361,3.49,1.6,1.6,0,0,1,6.017,1.94Z" transform="translate(0 0)" fill="#e7552b"/>
    <path id="Path_488" data-name="Path 488" d="M1.94,1.008A1.569,1.569,0,0,1,2.378,0H0V6.056a.969.969,0,0,0,.969.969H7.025V4.647a1.57,1.57,0,0,0,1.008.438A1.6,1.6,0,0,0,9.69,3.535,1.573,1.573,0,0,0,7.025,2.378V0H4.647A1.573,1.573,0,0,1,3.49,2.664,1.6,1.6,0,0,1,1.94,1.008Z" transform="translate(0 7.025)" fill="#5bd2f3"/>
    <path id="Path_489" data-name="Path 489" d="M1.008,7.75A1.569,1.569,0,0,1,0,7.312V9.69H6.056a.969.969,0,0,0,.969-.969V2.665H4.647a1.57,1.57,0,0,0,.438-1.008A1.6,1.6,0,0,0,3.535,0,1.573,1.573,0,0,0,2.378,2.665H0V5.043A1.573,1.573,0,0,1,2.664,6.2,1.6,1.6,0,0,1,1.008,7.75Z" transform="translate(7.025 4.361)" fill="#1b556f"/>
    <path id="Path_490" data-name="Path 490" d="M7.75,6.017a1.569,1.569,0,0,1-.438,1.008H9.69V.969A.969.969,0,0,0,8.721,0H2.665V2.378A1.57,1.57,0,0,0,1.657,1.94,1.6,1.6,0,0,0,0,3.49,1.573,1.573,0,0,0,2.665,4.647V7.025H5.043A1.573,1.573,0,0,1,6.2,4.361,1.6,1.6,0,0,1,7.75,6.017Z" transform="translate(4.361 0)" fill="#f0a21a"/>
  </g>
</svg>
