<svg xmlns="http://www.w3.org/2000/svg" width="36.058" height="36.058" viewBox="0 0 36.058 36.058">
  <path id="_1051326" data-name="1051326" d="M18.029,0A18.1,18.1,0,0,0,0,18.029c0,8.45,5.93,16.126,13.8,18.029V30.093a4.341,4.341,0,0,1-4.866-2.165c-.41-.691-1.136-1.44-1.893-1.385l-.186-2.1a4.345,4.345,0,0,1,3.9,2.411,2.336,2.336,0,0,0,1.355,1.16,2.84,2.84,0,0,0,1.774-.154,4.952,4.952,0,0,1,1.242-2.541h0c-4.7-.7-6.567-3.192-7.31-5.158A8.272,8.272,0,0,1,9.1,12.221.283.283,0,0,0,9.17,12a6.916,6.916,0,0,1,.21-4.616c.921.272,1.071-.274,4,1.506l.506.3c.212.126.145.054.357.038A15.3,15.3,0,0,1,18.029,8.7a15.366,15.366,0,0,1,3.836.546l.164.017c-.014,0,.045-.01.143-.069,3.66-2.217,3.529-1.492,4.51-1.812A7.034,7.034,0,0,1,26.887,12c-.106.328,3.173,3.331,1.355,8.152-.743,1.967-2.614,4.459-7.31,5.159h0c.6.917,1.325,1.405,1.321,3.3v7.446c7.874-1.9,13.8-9.579,13.8-18.029A18.1,18.1,0,0,0,18.029,0Zm0,0" fill="#22194a"/>
</svg>
