<svg xmlns="http://www.w3.org/2000/svg" width="204.477" height="36.774" viewBox="0 0 204.477 36.774">
  <g id="Group_745" data-name="Group 745" transform="translate(-55.545 -64)">
    <g id="puzzle" transform="matrix(0.819, -0.574, 0.574, 0.819, 55.545, 79.145)">
      <path id="Path_487" data-name="Path 487" d="M11.308,3.646a2.948,2.948,0,0,1,1.894.823V0H1.821A1.821,1.821,0,0,0,0,1.821V13.2H4.469A2.95,2.95,0,0,0,3.646,15.1,3,3,0,0,0,6.559,18.21,2.957,2.957,0,0,0,8.734,13.2H13.2V8.734A2.957,2.957,0,0,1,8.2,6.559,3,3,0,0,1,11.308,3.646Z" transform="translate(0 0)" fill="#e7552b"/>
      <path id="Path_488" data-name="Path 488" d="M3.646,1.894A2.948,2.948,0,0,1,4.469,0H0V11.381A1.821,1.821,0,0,0,1.821,13.2H13.2V8.734a2.95,2.95,0,0,0,1.894.823A3,3,0,0,0,18.21,6.643,2.957,2.957,0,0,0,13.2,4.469V0H8.734A2.957,2.957,0,0,1,6.559,5.007,3,3,0,0,1,3.646,1.894Z" transform="translate(0 13.202)" fill="#5bd2f3"/>
      <path id="Path_489" data-name="Path 489" d="M1.894,14.564A2.948,2.948,0,0,1,0,13.741V18.21H11.381A1.821,1.821,0,0,0,13.2,16.389V5.008H8.734a2.95,2.95,0,0,0,.823-1.894A3,3,0,0,0,6.643,0,2.957,2.957,0,0,0,4.469,5.008H0V9.476a2.957,2.957,0,0,1,5.007,2.174A3,3,0,0,1,1.894,14.564Z" transform="translate(13.202 8.195)" fill="#1b556f"/>
      <path id="Path_490" data-name="Path 490" d="M14.564,11.308a2.948,2.948,0,0,1-.823,1.894H18.21V1.821A1.821,1.821,0,0,0,16.389,0H5.008V4.469a2.95,2.95,0,0,0-1.894-.823A3,3,0,0,0,0,6.559,2.957,2.957,0,0,0,5.008,8.734V13.2H9.476A2.957,2.957,0,0,1,11.651,8.2,3,3,0,0,1,14.564,11.308Z" transform="translate(8.195 0)" fill="#f0a21a"/>
    </g>
    <path id="Union_31" data-name="Union 31" d="M127.495,23.719a7.692,7.692,0,0,1-2.61-1.542l1.457-1.772a5.494,5.494,0,0,0,1.881,1.36,5.577,5.577,0,0,0,2.319.51,4.945,4.945,0,0,0,1.918-.328,3.213,3.213,0,0,0,1.25-.9,3.477,3.477,0,0,0,.68-1.347,6.508,6.508,0,0,0,.206-1.675V16.545h-.049a4.047,4.047,0,0,1-1.724,1.481,5.444,5.444,0,0,1-2.331.51,6.029,6.029,0,0,1-2.392-.461,5.371,5.371,0,0,1-1.833-1.262A5.677,5.677,0,0,1,125.1,14.93a6.446,6.446,0,0,1-.413-2.319,6.544,6.544,0,0,1,.413-2.331,5.783,5.783,0,0,1,1.165-1.906,5.46,5.46,0,0,1,1.821-1.287,5.8,5.8,0,0,1,2.379-.474,5.474,5.474,0,0,1,2.367.534,4.076,4.076,0,0,1,1.784,1.627h.049V6.931h2.209V17.856a9.1,9.1,0,0,1-.316,2.416,5.249,5.249,0,0,1-1.068,2.039,5.36,5.36,0,0,1-1.966,1.42,7.479,7.479,0,0,1-3.01.534A8.878,8.878,0,0,1,127.495,23.719Zm1.76-14.882a3.737,3.737,0,0,0-1.2.874A3.649,3.649,0,0,0,127.3,11a4.776,4.776,0,0,0-.255,1.566,4.594,4.594,0,0,0,.255,1.53,3.765,3.765,0,0,0,1.954,2.185,3.638,3.638,0,0,0,1.6.34,3.991,3.991,0,0,0,1.6-.316,3.665,3.665,0,0,0,1.238-.862,3.858,3.858,0,0,0,.789-1.287,4.469,4.469,0,0,0,.279-1.59,4.3,4.3,0,0,0-.279-1.554,3.891,3.891,0,0,0-2.039-2.173,4.051,4.051,0,0,0-3.193,0ZM31.282,24.229a5.248,5.248,0,0,1-.765-.134l.219-2.015a3.6,3.6,0,0,0,1.141.194,1.684,1.684,0,0,0,1.335-.5,4.873,4.873,0,0,0,.8-1.42l.728-1.918L29.813,6.931h2.549l3.569,9.031h.049l3.18-9.031h2.428L36,21.158a9.253,9.253,0,0,1-.631,1.3,3.954,3.954,0,0,1-.8.971,3.3,3.3,0,0,1-1.081.619,4.423,4.423,0,0,1-1.469.219Q31.659,24.265,31.282,24.229ZM5.426,18.208a8.449,8.449,0,0,1-2.865-1.869A8.6,8.6,0,0,1,.68,13.474,9.568,9.568,0,0,1,0,9.82,9.482,9.482,0,0,1,.692,6.142,8.3,8.3,0,0,1,2.61,3.3a8.727,8.727,0,0,1,2.9-1.833A9.906,9.906,0,0,1,9.153.813a9.523,9.523,0,0,1,1.772.17,8.823,8.823,0,0,1,1.724.51,7.118,7.118,0,0,1,1.505.838,5.434,5.434,0,0,1,1.165,1.153L13.426,4.94A4.733,4.733,0,0,0,11.641,3.5a5.536,5.536,0,0,0-2.488-.57,6.469,6.469,0,0,0-2.707.546A6.127,6.127,0,0,0,4.394,4.964a6.759,6.759,0,0,0-1.311,2.2A7.618,7.618,0,0,0,2.622,9.82a8.056,8.056,0,0,0,.449,2.719,6.532,6.532,0,0,0,1.287,2.2A5.94,5.94,0,0,0,6.4,16.205a6.54,6.54,0,0,0,2.683.534,5.939,5.939,0,0,0,2.646-.583,5.1,5.1,0,0,0,1.967-1.7l1.918,1.311a7.715,7.715,0,0,1-2.646,2.246,8.25,8.25,0,0,1-3.909.862A9.658,9.658,0,0,1,5.426,18.208Zm103.691.036a5.01,5.01,0,0,1-2.076-1.554l1.627-1.384a3.727,3.727,0,0,0,1.275,1.141,3.553,3.553,0,0,0,1.784.461,4.02,4.02,0,0,0,.838-.085,2.38,2.38,0,0,0,.728-.279,1.406,1.406,0,0,0,.716-1.311,1.262,1.262,0,0,0-.765-1.19A10.255,10.255,0,0,0,111,13.316q-.582-.146-1.177-.352a3.941,3.941,0,0,1-1.08-.571,2.856,2.856,0,0,1-.789-.91,2.741,2.741,0,0,1-.3-1.347,3.188,3.188,0,0,1,.376-1.59,3.275,3.275,0,0,1,.983-1.093,4.327,4.327,0,0,1,1.384-.631,6.223,6.223,0,0,1,1.6-.206,6.107,6.107,0,0,1,2.391.486,3.956,3.956,0,0,1,1.785,1.408l-1.578,1.335A2.985,2.985,0,0,0,113.5,8.812a3.135,3.135,0,0,0-1.578-.4,3.618,3.618,0,0,0-.777.085,2.276,2.276,0,0,0-.692.267,1.476,1.476,0,0,0-.486.461,1.243,1.243,0,0,0-.182.692A1.151,1.151,0,0,0,110.44,11a8.04,8.04,0,0,0,1.966.643,12.142,12.142,0,0,1,1.53.461,4.775,4.775,0,0,1,1.226.668,2.873,2.873,0,0,1,.813.959,2.8,2.8,0,0,1,.291,1.311,3.523,3.523,0,0,1-.388,1.724,3.371,3.371,0,0,1-1.032,1.153,4.235,4.235,0,0,1-1.469.644,7.4,7.4,0,0,1-1.7.194A6.724,6.724,0,0,1,109.117,18.244Zm-11.763.073a5.614,5.614,0,0,1-1.918-1.226,5.682,5.682,0,0,1-1.262-1.906,6.43,6.43,0,0,1-.461-2.476,6.6,6.6,0,0,1,.449-2.464,5.641,5.641,0,0,1,1.25-1.93,5.722,5.722,0,0,1,1.894-1.25,6.487,6.487,0,0,1,4.649-.036,4.729,4.729,0,0,1,1.748,1.19,5.358,5.358,0,0,1,1.1,1.881,7.477,7.477,0,0,1,.388,2.489v.388a3.135,3.135,0,0,1-.024.388H96.043a3.451,3.451,0,0,0,.328,1.372,3.613,3.613,0,0,0,.813,1.117,3.8,3.8,0,0,0,2.6,1.008,3.842,3.842,0,0,0,2.015-.51,4.111,4.111,0,0,0,1.335-1.238l1.6,1.287a5.687,5.687,0,0,1-2.173,1.784,7.012,7.012,0,0,1-5.208.134Zm.935-9.65a3.561,3.561,0,0,0-1.117.692A3.644,3.644,0,0,0,96.4,10.39a3.291,3.291,0,0,0-.352,1.275h6.846a4.338,4.338,0,0,0-.231-1.275,2.93,2.93,0,0,0-.607-1.032,2.85,2.85,0,0,0-1-.692,3.522,3.522,0,0,0-1.4-.255A3.69,3.69,0,0,0,98.289,8.667ZM81.671,18.281a5.383,5.383,0,0,1-1.821-1.3,5.866,5.866,0,0,1-1.165-1.942,6.807,6.807,0,0,1-.413-2.379,6.706,6.706,0,0,1,.413-2.367,5.791,5.791,0,0,1,1.177-1.93,5.366,5.366,0,0,1,1.833-1.287,5.877,5.877,0,0,1,2.355-.461A4.871,4.871,0,0,1,86.5,7.21a5.075,5.075,0,0,1,1.651,1.445H88.2V.085h2.282V18.439H88.274V16.618h-.049a4.245,4.245,0,0,1-1.784,1.59,5.37,5.37,0,0,1-2.367.546A5.873,5.873,0,0,1,81.671,18.281Zm1.141-9.432a3.525,3.525,0,0,0-1.19.923,3.962,3.962,0,0,0-.728,1.335,5.091,5.091,0,0,0,0,3.108,3.962,3.962,0,0,0,.728,1.335,3.814,3.814,0,0,0,4.431.947,3.821,3.821,0,0,0,1.226-.91,4.112,4.112,0,0,0,.789-1.323,4.6,4.6,0,0,0,0-3.156,4.261,4.261,0,0,0-.789-1.335,3.746,3.746,0,0,0-1.226-.923,3.663,3.663,0,0,0-1.59-.34A3.761,3.761,0,0,0,82.812,8.849ZM53.1,18.3a5.785,5.785,0,0,1-1.967-1.262,5.92,5.92,0,0,1-1.3-1.93,6.22,6.22,0,0,1-.473-2.452,6.132,6.132,0,0,1,.473-2.44,5.816,5.816,0,0,1,1.3-1.906A5.883,5.883,0,0,1,53.1,7.064a6.918,6.918,0,0,1,4.9,0,6.014,6.014,0,0,1,1.978,1.25,5.724,5.724,0,0,1,1.311,1.906,6.127,6.127,0,0,1,.474,2.44,6.216,6.216,0,0,1-.474,2.452,5.825,5.825,0,0,1-1.311,1.93A5.912,5.912,0,0,1,58,18.3a6.918,6.918,0,0,1-4.9,0Zm.814-9.456a3.554,3.554,0,0,0-1.2.911,3.994,3.994,0,0,0-.741,1.323,5.014,5.014,0,0,0,0,3.156,4.137,4.137,0,0,0,.741,1.335,3.482,3.482,0,0,0,1.2.923,4.12,4.12,0,0,0,3.278,0,3.487,3.487,0,0,0,1.2-.923,4.142,4.142,0,0,0,.74-1.335,5.014,5.014,0,0,0,0-3.156,4,4,0,0,0-.74-1.323,3.559,3.559,0,0,0-1.2-.911,4.123,4.123,0,0,0-3.278,0Zm-33.37,9.468a5.61,5.61,0,0,1-1.918-1.226,5.674,5.674,0,0,1-1.262-1.906,6.424,6.424,0,0,1-.461-2.476,6.608,6.608,0,0,1,.449-2.464,5.641,5.641,0,0,1,1.25-1.93,5.724,5.724,0,0,1,1.894-1.25,6.487,6.487,0,0,1,4.649-.036,4.726,4.726,0,0,1,1.748,1.19,5.358,5.358,0,0,1,1.1,1.881,7.469,7.469,0,0,1,.388,2.489v.388a3.135,3.135,0,0,1-.024.388H19.228a3.451,3.451,0,0,0,.328,1.372,3.61,3.61,0,0,0,.814,1.117,3.8,3.8,0,0,0,2.6,1.008,3.842,3.842,0,0,0,2.015-.51,4.115,4.115,0,0,0,1.335-1.238l1.6,1.287a5.685,5.685,0,0,1-2.173,1.784,7.012,7.012,0,0,1-5.208.134Zm.935-9.65a3.561,3.561,0,0,0-1.117.692,3.649,3.649,0,0,0-.777,1.032,3.3,3.3,0,0,0-.352,1.275h6.846a4.338,4.338,0,0,0-.231-1.275,2.921,2.921,0,0,0-.607-1.032,2.852,2.852,0,0,0-1-.692,3.524,3.524,0,0,0-1.4-.255A3.69,3.69,0,0,0,21.474,8.667Zm127.3,9.772V12.054a7.817,7.817,0,0,0-.109-1.335,3.212,3.212,0,0,0-.4-1.117,2.169,2.169,0,0,0-.8-.777,2.62,2.62,0,0,0-1.311-.291,2.762,2.762,0,0,0-2.221,1.032,4.16,4.16,0,0,0-.862,2.756v6.118h-2.282V9.407q0-.461-.024-1.19t-.073-1.287h2.161q.049.437.073.983t.024.911h.073a3.359,3.359,0,0,1,.595-.862,4.3,4.3,0,0,1,.862-.7,4.241,4.241,0,0,1,1.068-.473,4.316,4.316,0,0,1,1.214-.17,4.481,4.481,0,0,1,1.918.376A3.885,3.885,0,0,1,150.013,8,4.073,4.073,0,0,1,150.8,9.48a6.3,6.3,0,0,1,.255,1.821v7.138Zm-29.595,0V6.931h2.282V18.439Zm-46.274,0V12.054a7.846,7.846,0,0,0-.109-1.335A3.211,3.211,0,0,0,72.4,9.6a2.169,2.169,0,0,0-.8-.777,2.619,2.619,0,0,0-1.311-.291,2.762,2.762,0,0,0-2.222,1.032,4.162,4.162,0,0,0-.862,2.756v6.118H64.919V9.407q0-.461-.024-1.19t-.073-1.287h2.161q.049.437.073.983t.024.911h.073a3.351,3.351,0,0,1,.595-.862,4.306,4.306,0,0,1,.862-.7,4.247,4.247,0,0,1,1.068-.473,4.316,4.316,0,0,1,1.214-.17,4.481,4.481,0,0,1,1.918.376A3.885,3.885,0,0,1,74.145,8a4.073,4.073,0,0,1,.789,1.481,6.305,6.305,0,0,1,.255,1.821v7.138Zm-29.061,0V.085h2.282V18.439ZM119.253,3.811a1.387,1.387,0,0,1-.437-1.032,1.414,1.414,0,0,1,.437-1.056,1.475,1.475,0,0,1,1.068-.425,1.516,1.516,0,0,1,1.08.425,1.394,1.394,0,0,1,.449,1.056,1.357,1.357,0,0,1-.449,1.044,1.54,1.54,0,0,1-1.08.413A1.475,1.475,0,0,1,119.253,3.811ZM156.687,3.2V.524h-.009L155.616,3.2h-.285L154.275.524h-.009V3.2h-.434V0h.7l.957,2.457h.009L156.439,0h.7V3.2Zm-4.751,0V.393H150.91V0h2.5V.393h-1.025V3.2Z" transform="translate(102.387 70.374)" fill="#22194a" stroke="rgba(0,0,0,0)" stroke-width="1"/>
  </g>
</svg>
